<?xml version="1.0" encoding="UTF-8" standalone="no"?>
<!DOCTYPE svg PUBLIC "-//W3C//DTD SVG 1.1//EN"
 "http://www.w3.org/Graphics/SVG/1.1/DTD/svg11.dtd">
<!-- Generated by graphviz version 2.26.3 (20100126.1600)
 -->
<!-- Title: G Pages: 1 -->
<svg width="606pt" height="808pt"
 viewBox="0.00 0.00 606.00 808.00" xmlns="http://www.w3.org/2000/svg" xmlns:xlink="http://www.w3.org/1999/xlink">
<g id="graph1" class="graph" transform="scale(1 1) rotate(0) translate(4 804)">
<title>G</title>
<polygon fill="white" stroke="white" points="-4,5 -4,-804 603,-804 603,5 -4,5"/>
<g id="graph2" class="cluster"><title>cluster_Global</title>
<polyline fill="none" stroke="gray" points="20,-44 578,-44 "/>
<path fill="none" stroke="gray" d="M578,-44C584,-44 590,-50 590,-56"/>
<polyline fill="none" stroke="gray" points="590,-56 590,-780 "/>
<path fill="none" stroke="gray" d="M590,-780C590,-786 584,-792 578,-792"/>
<polyline fill="none" stroke="gray" points="578,-792 20,-792 "/>
<path fill="none" stroke="gray" d="M20,-792C14,-792 8,-786 8,-780"/>
<polyline fill="none" stroke="gray" points="8,-780 8,-56 "/>
<path fill="none" stroke="gray" d="M8,-56C8,-50 14,-44 20,-44"/>
<text text-anchor="middle" x="299" y="-778.1" font-family="Times Roman,serif" font-size="11.00" fill="gray">Global</text>
</g>
<g id="graph3" class="cluster"><title>cluster_\Mbcraft</title>
<polyline fill="none" stroke="gray" points="28,-52 570,-52 "/>
<path fill="none" stroke="gray" d="M570,-52C576,-52 582,-58 582,-64"/>
<polyline fill="none" stroke="gray" points="582,-64 582,-750 "/>
<path fill="none" stroke="gray" d="M582,-750C582,-756 576,-762 570,-762"/>
<polyline fill="none" stroke="gray" points="570,-762 28,-762 "/>
<path fill="none" stroke="gray" d="M28,-762C22,-762 16,-756 16,-750"/>
<polyline fill="none" stroke="gray" points="16,-750 16,-64 "/>
<path fill="none" stroke="gray" d="M16,-64C16,-58 22,-52 28,-52"/>
<text text-anchor="middle" x="299" y="-748.1" font-family="Times Roman,serif" font-size="11.00" fill="gray">Mbcraft</text>
</g>
<g id="graph4" class="cluster"><title>cluster_\Mbcraft\Piol</title>
<polyline fill="none" stroke="gray" points="36,-60 562,-60 "/>
<path fill="none" stroke="gray" d="M562,-60C568,-60 574,-66 574,-72"/>
<polyline fill="none" stroke="gray" points="574,-72 574,-720 "/>
<path fill="none" stroke="gray" d="M574,-720C574,-726 568,-732 562,-732"/>
<polyline fill="none" stroke="gray" points="562,-732 36,-732 "/>
<path fill="none" stroke="gray" d="M36,-732C30,-732 24,-726 24,-720"/>
<polyline fill="none" stroke="gray" points="24,-720 24,-72 "/>
<path fill="none" stroke="gray" d="M24,-72C24,-66 30,-60 36,-60"/>
<text text-anchor="middle" x="299" y="-718.1" font-family="Times Roman,serif" font-size="11.00" fill="gray">Piol</text>
</g>
<g id="graph5" class="cluster"><title>cluster_\Mbcraft\Piol\Utils</title>
<polyline fill="none" stroke="gray" points="192,-492 350,-492 "/>
<path fill="none" stroke="gray" d="M350,-492C356,-492 362,-498 362,-504"/>
<polyline fill="none" stroke="gray" points="362,-504 362,-608 "/>
<path fill="none" stroke="gray" d="M362,-608C362,-614 356,-620 350,-620"/>
<polyline fill="none" stroke="gray" points="350,-620 192,-620 "/>
<path fill="none" stroke="gray" d="M192,-620C186,-620 180,-614 180,-608"/>
<polyline fill="none" stroke="gray" points="180,-608 180,-504 "/>
<path fill="none" stroke="gray" d="M180,-504C180,-498 186,-492 192,-492"/>
<text text-anchor="middle" x="271" y="-606.1" font-family="Times Roman,serif" font-size="11.00" fill="gray">Utils</text>
</g>
<g id="graph6" class="cluster"><title>cluster_\Mbcraft\Piol\StorageDrivers</title>
<polyline fill="none" stroke="gray" points="430,-384 554,-384 "/>
<path fill="none" stroke="gray" d="M554,-384C560,-384 566,-390 566,-396"/>
<polyline fill="none" stroke="gray" points="566,-396 566,-554 "/>
<path fill="none" stroke="gray" d="M566,-554C566,-560 560,-566 554,-566"/>
<polyline fill="none" stroke="gray" points="554,-566 430,-566 "/>
<path fill="none" stroke="gray" d="M430,-566C424,-566 418,-560 418,-554"/>
<polyline fill="none" stroke="gray" points="418,-554 418,-396 "/>
<path fill="none" stroke="gray" d="M418,-396C418,-390 424,-384 430,-384"/>
<text text-anchor="middle" x="492" y="-552.1" font-family="Times Roman,serif" font-size="11.00" fill="gray">StorageDrivers</text>
</g>
<g id="graph7" class="cluster"><title>cluster_\Mbcraft\Piol\Cache</title>
<polyline fill="none" stroke="gray" points="49,-628 316,-628 "/>
<path fill="none" stroke="gray" d="M316,-628C322,-628 328,-634 328,-640"/>
<polyline fill="none" stroke="gray" points="328,-640 328,-690 "/>
<path fill="none" stroke="gray" d="M328,-690C328,-696 322,-702 316,-702"/>
<polyline fill="none" stroke="gray" points="316,-702 49,-702 "/>
<path fill="none" stroke="gray" d="M49,-702C43,-702 37,-696 37,-690"/>
<polyline fill="none" stroke="gray" points="37,-690 37,-640 "/>
<path fill="none" stroke="gray" d="M37,-640C37,-634 43,-628 49,-628"/>
<text text-anchor="middle" x="182.5" y="-688.1" font-family="Times Roman,serif" font-size="11.00" fill="gray">Cache</text>
</g>
<!-- \\Mbcraft\\Piol\\Utils\\JavaXmlPropertiesUtils -->
<g id="node5" class="node"><title>\\Mbcraft\\Piol\\Utils\\JavaXmlPropertiesUtils</title>
<polygon fill="none" stroke="black" points="353,-590 189,-590 189,-554 353,-554 353,-590"/>
<text text-anchor="middle" x="271" y="-569.1" font-family="Courier,monospace" font-size="11.00">JavaXmlPropertiesUtils</text>
</g>
<!-- \\Mbcraft\\Piol\\PiolObject -->
<g id="node19" class="node"><title>\\Mbcraft\\Piol\\PiolObject</title>
<polygon fill="none" stroke="black" points="116,-374 32,-374 32,-338 116,-338 116,-374"/>
<text text-anchor="middle" x="74" y="-353.1" font-family="Courier,monospace" font-size="11.00">PiolObject</text>
</g>
<!-- \\Mbcraft\\Piol\\Utils\\JavaXmlPropertiesUtils&#45;&gt;\\Mbcraft\\Piol\\PiolObject -->
<g id="edge12" class="edge"><title>\\Mbcraft\\Piol\\Utils\\JavaXmlPropertiesUtils&#45;&gt;\\Mbcraft\\Piol\\PiolObject</title>
<path fill="none" stroke="black" d="M193.819,-553.957C188.914,-551.362 184.249,-548.394 180,-545 126.619,-502.356 95.6302,-425.099 82.1277,-383.8"/>
<polygon fill="none" stroke="black" points="85.4189,-382.599 79.0687,-374.118 78.7441,-384.708 85.4189,-382.599"/>
</g>
<!-- \\Mbcraft\\Piol\\Utils\\IniPropertiesUtils -->
<g id="node6" class="node"><title>\\Mbcraft\\Piol\\Utils\\IniPropertiesUtils</title>
<polygon fill="none" stroke="black" points="340,-536 202,-536 202,-500 340,-500 340,-536"/>
<text text-anchor="middle" x="271" y="-515.1" font-family="Courier,monospace" font-size="11.00">IniPropertiesUtils</text>
</g>
<!-- \\Mbcraft\\Piol\\Utils\\IniPropertiesUtils&#45;&gt;\\Mbcraft\\Piol\\PiolObject -->
<g id="edge14" class="edge"><title>\\Mbcraft\\Piol\\Utils\\IniPropertiesUtils&#45;&gt;\\Mbcraft\\Piol\\PiolObject</title>
<path fill="none" stroke="black" d="M201.793,-506.67C194.108,-503.864 186.662,-500.364 180,-496 136.783,-467.688 104.332,-415.508 87.3323,-383.468"/>
<polygon fill="none" stroke="black" points="90.2552,-381.5 82.5577,-374.22 84.0353,-384.712 90.2552,-381.5"/>
</g>
<!-- \\Mbcraft\\Piol\\StorageDrivers\\PropertiesStorage -->
<g id="node8" class="node"><title>\\Mbcraft\\Piol\\StorageDrivers\\PropertiesStorage</title>
<polygon fill="none" stroke="black" points="557,-536 427,-536 427,-500 557,-500 557,-536"/>
<text text-anchor="middle" x="492" y="-515.1" font-family="Courier,monospace" font-size="11.00">PropertiesStorage</text>
</g>
<!-- \\Mbcraft\\Piol\\Storage -->
<g id="node26" class="node"><title>\\Mbcraft\\Piol\\Storage</title>
<polygon fill="none" stroke="black" points="313,-482 229,-482 229,-446 313,-446 313,-482"/>
<text text-anchor="start" x="237" y="-469.433" font-family="Courier,monospace" font-size="11.00">«abstract»</text>
<text text-anchor="start" x="247" y="-456.233" font-family="Courier,monospace" font-size="11.00">Storage</text>
</g>
<!-- \\Mbcraft\\Piol\\StorageDrivers\\PropertiesStorage&#45;&gt;\\Mbcraft\\Piol\\Storage -->
<g id="edge24" class="edge"><title>\\Mbcraft\\Piol\\StorageDrivers\\PropertiesStorage&#45;&gt;\\Mbcraft\\Piol\\Storage</title>
<path fill="none" stroke="black" d="M426.291,-501.944C393.597,-493.956 354.607,-484.429 323.874,-476.919"/>
<polygon fill="none" stroke="black" points="324.334,-473.429 313.789,-474.455 322.672,-480.229 324.334,-473.429"/>
</g>
<!-- \\Mbcraft\\Piol\\StorageDrivers\\XMLStorage -->
<g id="node9" class="node"><title>\\Mbcraft\\Piol\\StorageDrivers\\XMLStorage</title>
<polygon fill="none" stroke="black" points="534,-482 450,-482 450,-446 534,-446 534,-482"/>
<text text-anchor="middle" x="492" y="-461.1" font-family="Courier,monospace" font-size="11.00">XMLStorage</text>
</g>
<!-- \\Mbcraft\\Piol\\StorageDrivers\\XMLStorage&#45;&gt;\\Mbcraft\\Piol\\Storage -->
<g id="edge26" class="edge"><title>\\Mbcraft\\Piol\\StorageDrivers\\XMLStorage&#45;&gt;\\Mbcraft\\Piol\\Storage</title>
<path fill="none" stroke="black" d="M449.911,-464C414.043,-464 362.319,-464 323.703,-464"/>
<polygon fill="none" stroke="black" points="323.685,-460.5 313.685,-464 323.685,-467.5 323.685,-460.5"/>
</g>
<!-- \\Mbcraft\\Piol\\StorageDrivers\\DataStorage -->
<g id="node10" class="node"><title>\\Mbcraft\\Piol\\StorageDrivers\\DataStorage</title>
<polygon fill="none" stroke="black" points="537,-428 447,-428 447,-392 537,-392 537,-428"/>
<text text-anchor="middle" x="492" y="-407.1" font-family="Courier,monospace" font-size="11.00">DataStorage</text>
</g>
<!-- \\Mbcraft\\Piol\\StorageDrivers\\DataStorage&#45;&gt;\\Mbcraft\\Piol\\Storage -->
<g id="edge28" class="edge"><title>\\Mbcraft\\Piol\\StorageDrivers\\DataStorage&#45;&gt;\\Mbcraft\\Piol\\Storage</title>
<path fill="none" stroke="black" d="M446.477,-421.123C410.751,-429.853 360.972,-442.016 323.554,-451.159"/>
<polygon fill="none" stroke="black" points="322.722,-447.759 313.838,-453.533 324.383,-454.559 322.722,-447.759"/>
</g>
<!-- \\Mbcraft\\Piol\\Cache\\FlatDirCache -->
<g id="node12" class="node"><title>\\Mbcraft\\Piol\\Cache\\FlatDirCache</title>
<polygon fill="none" stroke="black" points="320,-672 222,-672 222,-636 320,-636 320,-672"/>
<text text-anchor="middle" x="271" y="-651.1" font-family="Courier,monospace" font-size="11.00">FlatDirCache</text>
</g>
<!-- \\Mbcraft\\Piol\\Cache\\ICache -->
<g id="node13" class="node"><title>\\Mbcraft\\Piol\\Cache\\ICache</title>
<polygon fill="none" stroke="black" points="102,-672 46,-672 46,-636 102,-636 102,-672"/>
<text text-anchor="middle" x="74" y="-651.1" font-family="Courier,monospace" font-size="11.00">ICache</text>
</g>
<!-- \\Mbcraft\\Piol\\Cache\\FlatDirCache&#45;&gt;\\Mbcraft\\Piol\\Cache\\ICache -->
<g id="edge44" class="edge"><title>\\Mbcraft\\Piol\\Cache\\FlatDirCache&#45;&gt;\\Mbcraft\\Piol\\Cache\\ICache</title>
<path fill="none" stroke="black" stroke-dasharray="1,5" d="M221.797,-654C188.11,-654 144.06,-654 112.839,-654"/>
<polygon fill="none" stroke="black" points="112.776,-650.5 102.776,-654 112.776,-657.5 112.776,-650.5"/>
</g>
<!-- \\Mbcraft\\Piol\\Cache\\FlatDirCache&#45;&gt;\\Mbcraft\\Piol\\PiolObject -->
<g id="edge42" class="edge"><title>\\Mbcraft\\Piol\\Cache\\FlatDirCache&#45;&gt;\\Mbcraft\\Piol\\PiolObject</title>
<path fill="none" stroke="black" d="M221.934,-646.196C206.99,-641.772 191.495,-634.845 180,-624 109.543,-557.528 85.0297,-438.329 77.2654,-384.163"/>
<polygon fill="none" stroke="black" points="80.7313,-383.675 75.9272,-374.232 73.794,-384.61 80.7313,-383.675"/>
</g>
<!-- \\Mbcraft\\Piol\\File -->
<g id="node14" class="node"><title>\\Mbcraft\\Piol\\File</title>
<polygon fill="none" stroke="black" points="519,-320 465,-320 465,-284 519,-284 519,-320"/>
<text text-anchor="middle" x="492" y="-299.1" font-family="Courier,monospace" font-size="11.00">File</text>
</g>
<!-- \\Mbcraft\\Piol\\__FileSystemElement -->
<g id="node24" class="node"><title>\\Mbcraft\\Piol\\__FileSystemElement</title>
<polygon fill="none" stroke="black" points="344,-320 198,-320 198,-284 344,-284 344,-320"/>
<text text-anchor="start" x="237" y="-307.433" font-family="Courier,monospace" font-size="11.00">«abstract»</text>
<text text-anchor="start" x="206.5" y="-294.233" font-family="Courier,monospace" font-size="11.00">__FileSystemElement</text>
</g>
<!-- \\Mbcraft\\Piol\\File&#45;&gt;\\Mbcraft\\Piol\\__FileSystemElement -->
<g id="edge8" class="edge"><title>\\Mbcraft\\Piol\\File&#45;&gt;\\Mbcraft\\Piol\\__FileSystemElement</title>
<path fill="none" stroke="black" d="M464.901,-302C437.497,-302 393.733,-302 354.711,-302"/>
<polygon fill="none" stroke="black" points="354.379,-298.5 344.379,-302 354.379,-305.5 354.379,-298.5"/>
</g>
<!-- \\Mbcraft\\Piol\\ZipUtils -->
<g id="node15" class="node"><title>\\Mbcraft\\Piol\\ZipUtils</title>
<polygon fill="none" stroke="black" points="306,-428 236,-428 236,-392 306,-392 306,-428"/>
<text text-anchor="middle" x="271" y="-407.1" font-family="Courier,monospace" font-size="11.00">ZipUtils</text>
</g>
<!-- \\Mbcraft\\Piol\\ZipUtils&#45;&gt;\\Mbcraft\\Piol\\PiolObject -->
<g id="edge10" class="edge"><title>\\Mbcraft\\Piol\\ZipUtils&#45;&gt;\\Mbcraft\\Piol\\PiolObject</title>
<path fill="none" stroke="black" d="M235.325,-400.221C204.848,-391.867 160.599,-379.738 126.149,-370.295"/>
<polygon fill="none" stroke="black" points="126.825,-366.851 116.256,-367.583 124.975,-373.602 126.825,-366.851"/>
</g>
<!-- \\Mbcraft\\Piol\\FileWriter -->
<g id="node16" class="node"><title>\\Mbcraft\\Piol\\FileWriter</title>
<polygon fill="none" stroke="black" points="534,-374 450,-374 450,-338 534,-338 534,-374"/>
<text text-anchor="middle" x="492" y="-353.1" font-family="Courier,monospace" font-size="11.00">FileWriter</text>
</g>
<!-- \\Mbcraft\\Piol\\FileReader -->
<g id="node21" class="node"><title>\\Mbcraft\\Piol\\FileReader</title>
<polygon fill="none" stroke="black" points="313,-374 229,-374 229,-338 313,-338 313,-374"/>
<text text-anchor="middle" x="271" y="-353.1" font-family="Courier,monospace" font-size="11.00">FileReader</text>
</g>
<!-- \\Mbcraft\\Piol\\FileWriter&#45;&gt;\\Mbcraft\\Piol\\FileReader -->
<g id="edge16" class="edge"><title>\\Mbcraft\\Piol\\FileWriter&#45;&gt;\\Mbcraft\\Piol\\FileReader</title>
<path fill="none" stroke="black" d="M449.911,-356C413.928,-356 361.988,-356 323.332,-356"/>
<polygon fill="none" stroke="black" points="323.308,-352.5 313.308,-356 323.308,-359.5 323.308,-352.5"/>
</g>
<!-- \\Mbcraft\\Piol\\Dir -->
<g id="node17" class="node"><title>\\Mbcraft\\Piol\\Dir</title>
<polygon fill="none" stroke="black" points="519,-266 465,-266 465,-230 519,-230 519,-266"/>
<text text-anchor="middle" x="492" y="-245.1" font-family="Courier,monospace" font-size="11.00">Dir</text>
</g>
<!-- \\Mbcraft\\Piol\\Dir&#45;&gt;\\Mbcraft\\Piol\\__FileSystemElement -->
<g id="edge18" class="edge"><title>\\Mbcraft\\Piol\\Dir&#45;&gt;\\Mbcraft\\Piol\\__FileSystemElement</title>
<path fill="none" stroke="black" d="M464.901,-254.621C437.381,-261.346 393.36,-272.102 354.213,-281.667"/>
<polygon fill="none" stroke="black" points="353.262,-278.297 344.379,-284.07 354.924,-285.097 353.262,-278.297"/>
</g>
<!-- \\Mbcraft\\Piol\\FileSystemUtils -->
<g id="node18" class="node"><title>\\Mbcraft\\Piol\\FileSystemUtils</title>
<polygon fill="none" stroke="black" points="330,-266 212,-266 212,-230 330,-230 330,-266"/>
<text text-anchor="middle" x="271" y="-245.1" font-family="Courier,monospace" font-size="11.00">FileSystemUtils</text>
</g>
<!-- \\Mbcraft\\Piol\\FileSystemUtils&#45;&gt;\\Mbcraft\\Piol\\PiolObject -->
<g id="edge20" class="edge"><title>\\Mbcraft\\Piol\\FileSystemUtils&#45;&gt;\\Mbcraft\\Piol\\PiolObject</title>
<path fill="none" stroke="black" d="M211.53,-262.236C200.765,-265.76 189.842,-269.995 180,-275 150.657,-289.922 121.222,-313.243 100.842,-331.037"/>
<polygon fill="none" stroke="black" points="98.381,-328.542 93.2265,-337.798 103.028,-333.777 98.381,-328.542"/>
</g>
<!-- \\Mbcraft\\Piol\\Upload -->
<g id="node20" class="node"><title>\\Mbcraft\\Piol\\Upload</title>
<polygon fill="none" stroke="black" points="299,-212 243,-212 243,-176 299,-176 299,-212"/>
<text text-anchor="middle" x="271" y="-191.1" font-family="Courier,monospace" font-size="11.00">Upload</text>
</g>
<!-- \\Mbcraft\\Piol\\Upload&#45;&gt;\\Mbcraft\\Piol\\PiolObject -->
<g id="edge22" class="edge"><title>\\Mbcraft\\Piol\\Upload&#45;&gt;\\Mbcraft\\Piol\\PiolObject</title>
<path fill="none" stroke="black" d="M242.396,-197.854C223.423,-201.472 198.674,-208.312 180,-221 138.676,-249.077 106.015,-298.28 88.3941,-328.896"/>
<polygon fill="none" stroke="black" points="85.2627,-327.324 83.4155,-337.757 91.3653,-330.753 85.2627,-327.324"/>
</g>
<!-- \\Mbcraft\\Piol\\FileReader&#45;&gt;\\Mbcraft\\Piol\\PiolObject -->
<g id="edge30" class="edge"><title>\\Mbcraft\\Piol\\FileReader&#45;&gt;\\Mbcraft\\Piol\\PiolObject</title>
<path fill="none" stroke="black" d="M228.739,-356C198.746,-356 158.291,-356 126.268,-356"/>
<polygon fill="none" stroke="black" points="126.192,-352.5 116.192,-356 126.192,-359.5 126.192,-352.5"/>
</g>
<!-- \\Mbcraft\\Piol\\UploadUtils -->
<g id="node22" class="node"><title>\\Mbcraft\\Piol\\UploadUtils</title>
<polygon fill="none" stroke="black" points="316,-158 226,-158 226,-122 316,-122 316,-158"/>
<text text-anchor="middle" x="271" y="-137.1" font-family="Courier,monospace" font-size="11.00">UploadUtils</text>
</g>
<!-- \\Mbcraft\\Piol\\UploadUtils&#45;&gt;\\Mbcraft\\Piol\\PiolObject -->
<g id="edge32" class="edge"><title>\\Mbcraft\\Piol\\UploadUtils&#45;&gt;\\Mbcraft\\Piol\\PiolObject</title>
<path fill="none" stroke="black" d="M225.152,-146.401C209.577,-150.345 192.875,-156.714 180,-167 126.619,-209.644 95.6302,-286.901 82.1277,-328.2"/>
<polygon fill="none" stroke="black" points="78.7441,-327.292 79.0687,-337.882 85.4189,-329.401 78.7441,-327.292"/>
</g>
<!-- \\Mbcraft\\Piol\\IOException -->
<g id="node23" class="node"><title>\\Mbcraft\\Piol\\IOException</title>
<polygon fill="none" stroke="black" points="537,-104 447,-104 447,-68 537,-68 537,-104"/>
<text text-anchor="middle" x="492" y="-83.1" font-family="Courier,monospace" font-size="11.00">IOException</text>
</g>
<!-- \\Exception -->
<g id="node41" class="node"><title>\\Exception</title>
<ellipse fill="none" stroke="black" cx="271" cy="-18" rx="62.9325" ry="18.3848"/>
<text text-anchor="middle" x="271" y="-14.4" font-family="Times Roman,serif" font-size="14.00" fill="gray">\Exception</text>
</g>
<!-- \\Mbcraft\\Piol\\IOException&#45;&gt;\\Exception -->
<g id="edge34" class="edge"><title>\\Mbcraft\\Piol\\IOException&#45;&gt;\\Exception</title>
<path fill="none" stroke="black" d="M446.477,-71.9928C410.867,-61.036 361.295,-45.783 323.919,-34.2828"/>
<polygon fill="none" stroke="black" points="324.797,-30.8911 314.21,-31.2954 322.739,-37.5816 324.797,-30.8911"/>
</g>
<!-- \\Mbcraft\\Piol\\__FileSystemElement&#45;&gt;\\Mbcraft\\Piol\\PiolObject -->
<g id="edge36" class="edge"><title>\\Mbcraft\\Piol\\__FileSystemElement&#45;&gt;\\Mbcraft\\Piol\\PiolObject</title>
<path fill="none" stroke="black" d="M205.128,-320.056C179.273,-327.144 150.036,-335.158 125.741,-341.817"/>
<polygon fill="none" stroke="black" points="124.721,-338.468 116.002,-344.487 126.572,-345.218 124.721,-338.468"/>
</g>
<!-- \\Mbcraft\\Piol\\StorageFactory -->
<g id="node25" class="node"><title>\\Mbcraft\\Piol\\StorageFactory</title>
<polygon fill="none" stroke="black" points="326,-104 216,-104 216,-68 326,-68 326,-104"/>
<text text-anchor="middle" x="271" y="-83.1" font-family="Courier,monospace" font-size="11.00">StorageFactory</text>
</g>
<!-- \\Mbcraft\\Piol\\StorageFactory&#45;&gt;\\Mbcraft\\Piol\\PiolObject -->
<g id="edge38" class="edge"><title>\\Mbcraft\\Piol\\StorageFactory&#45;&gt;\\Mbcraft\\Piol\\PiolObject</title>
<path fill="none" stroke="black" d="M215.111,-94.356C202.468,-98.3567 189.877,-104.268 180,-113 114.326,-171.061 87.7013,-277.226 78.3725,-327.785"/>
<polygon fill="none" stroke="black" points="74.915,-327.239 76.6366,-337.693 81.81,-328.447 74.915,-327.239"/>
</g>
<!-- \\Mbcraft\\Piol\\Storage&#45;&gt;\\Mbcraft\\Piol\\PiolObject -->
<g id="edge40" class="edge"><title>\\Mbcraft\\Piol\\Storage&#45;&gt;\\Mbcraft\\Piol\\PiolObject</title>
<path fill="none" stroke="black" d="M228.093,-454.715C212.473,-450.453 194.983,-444.619 180,-437 150.657,-422.078 121.222,-398.757 100.842,-380.963"/>
<polygon fill="none" stroke="black" points="103.028,-378.223 93.2265,-374.202 98.381,-383.458 103.028,-378.223"/>
</g>
</g>
</svg>
